<svg xmlns="http://www.w3.org/2000/svg" width="48" height="48" viewBox="0 0 48 48">
  <style>
    .bg   { fill: #143845; }
    .icon { fill: #FEFFFE; }
    @media (prefers-color-scheme: dark) {
      .bg   { fill: #FEFFFE; }
      .icon { fill: #143845; }
    }
  </style>
  <path class="bg" d="m24 0.51c-12.93 0-23.43 10.3-23.43 23.39v0.2c0 12.94 10.5 23.4 23.32 23.4h0.52c12.86 0 23.07-10.84 23.07-22.23v-2.64c-0.74-11.72-10.56-22.12-23.48-22.12z"/>
  <path class="icon" d="m24 13.66c-0.92 0-1.71 0.36-2.23 0.95l-10.11 10.26c-0.67 0.67-0.87 1.47-0.83 2.19 0.06 1.65 1.48 2.93 2.88 2.91h0.1c0.97 0 1.7-0.46 2.2-1.01l7.98-8.05 8.03 8.16c0.64 0.7 1.44 0.91 2.19 0.9 1.8-0.04 2.87-1.59 2.84-2.94-0.03-0.89-0.4-1.57-0.89-2.06l-9.95-10.25c-0.67-0.71-1.39-1.06-2.21-1.06z"/>
</svg>
