<svg xmlns="http://www.w3.org/2000/svg" width="240" height="36" viewBox="0 0 240 36">
<!-- SVG created with Arrow, by QuiverAI (https://quiver.ai) -->
  <path d="m236.3 3.31h-111.8c-2.07 0-3.15 1.32-3.15 3.11v25.89c0 2.01 1.34 3.11 2.94 3.11h111.7c2.07 0 2.79-1.4 2.79-2.89v-26.43c0-1.54-1.19-2.79-2.47-2.79z" fill="#CC8C7A"/>
  <path d="m133.2 7.64c-1.1 0-1.65 0.59-1.65 1.75v17.94c0 1.33 0.75 1.98 1.95 1.98h10.89c1.02 0 1.52-0.48 1.52-1.38 0-0.87-0.5-1.32-1.52-1.32h-9.82v-17.22c0-1.16-0.53-1.75-1.37-1.75z" fill="#FEFEFE"/>
  <path d="m150.4 7.97c-1.1 0-1.69 0.64-1.69 1.75v17.71c0 1.2 0.66 1.88 1.85 1.88h12.74c1 0 1.53-0.53 1.53-1.4 0-0.85-0.53-1.32-1.53-1.32h-11.58v-6.86h10.34c0.99 0 1.54-0.48 1.54-1.32 0-0.85-0.55-1.33-1.54-1.33h-10.34v-6.37h11.13c1 0 1.52-0.5 1.52-1.37s-0.52-1.37-1.52-1.37h-12.45z" fill="#FEFEFE"/>
  <path d="m176.8 7.77c-1.15 0-1.7 0.46-2.15 1.62l-6.86 17.99c-0.17 0.43-0.25 0.73-0.25 0.98 0 0.7 0.65 1.24 1.55 1.24 0.7 0 1.15-0.34 1.5-1.29l1.94-4.99h10.39l2.06 5.04c0.37 0.92 0.85 1.24 1.62 1.24 0.9 0 1.49-0.59 1.49-1.39 0-0.3-0.07-0.63-0.24-1.05l-7.97-17.94c-0.52-1.16-1.22-1.45-3.08-1.45zm0.79 2.44 4.26 10.51h-8.2l3.94-10.51z" fill="#FEFEFE"/>
  <path d="m193.9 7.97c-1.16 0-1.75 0.62-1.75 1.8v17.64c0 1.2 0.69 1.9 1.9 1.9h6.71c6.91 0 9.86-5.5 9.86-10.7 0-5.45-3.4-10.64-9.86-10.64h-6.86zm1.27 2.69h5.37c5.14 0 7.2 4.62 7.2 8.4 0 4.11-2.5 7.6-7.2 7.6h-5.37v-16z" fill="#FEFEFE"/>
  <path d="m222.3 7.64c-5.6 0-8.32 2.45-8.32 6.18 0 2.87 1.93 4.52 5.92 5.49l4.04 1.02c2.19 0.56 3.54 1.18 3.54 2.79 0 2.16-1.7 3.74-5.4 3.74-2.35 0-4.36-0.67-6.03-1.34-0.55-0.24-0.95-0.37-1.34-0.37-0.83 0-1.37 0.59-1.37 1.39 0 0.62 0.32 1.09 1.11 1.42 1.7 0.75 4.45 1.6 7.55 1.6 5.68 0 8.4-2.65 8.4-6.44 0-2.82-1.83-4.41-5.58-5.43l-4.04-1.15c-2.5-0.72-3.88-1.24-3.88-2.92 0-1.96 1.58-3.31 5.28-3.31 1.78 0 3.45 0.4 5.1 0.92 0.47 0.15 0.82 0.25 1.17 0.25 0.82 0 1.36-0.6 1.36-1.44 0-0.7-0.34-1.15-1.14-1.43-1.49-0.5-3.94-0.97-6.37-0.97z" fill="#FEFEFE"/>
  <path d="m10.71 10.8c-5.8 0-8.7 2.61-8.7 6.27 0 2.84 1.5 4.38 5.18 5.38l5.42 1.51c2.01 0.59 2.7 1.02 2.7 2.02 0 1.34-1.5 2.18-4.55 2.18-2.28 0-3.72-0.57-4.47-2.23-0.62-1.32-1.17-1.67-2.25-1.67-1.32 0-2.21 0.82-2.21 2.04 0 0.75 0.45 1.93 1.39 2.98 1.54 1.77 3.99 2.63 7.69 2.63 6.38 0 8.51-3.3 8.51-6.15 0-2.75-1.71-4.54-5.61-5.62l-4.69-1.35c-1.98-0.57-2.78-0.94-2.78-2.04 0-1.22 1.35-2.09 4.05-2.09 2.18 0 3.79 0.62 4.43 2.16 0.59 1.35 1.19 1.72 2.22 1.72 1.32 0 2.06-0.8 2.06-2.12 0-0.79-0.42-1.86-1.46-2.91-1.47-1.51-3.73-2.71-6.93-2.71z" fill="#FEFEFE"/>
  <path d="m22.84 13.41c-0.15 0.38-0.25 0.73-0.25 1.1 0 0.35 0.07 0.72 0.25 1.14l5.47 12.44c0.6 1.42 0.65 1.59 0.87 2.34 0.33 1.04 0.8 1.41 2 1.41 1.3 0 1.67-0.32 2.21-1.69l4.89-10.29 5.63 10.44c0.67 1.3 1.06 1.54 2.21 1.54 1.25 0 1.5-0.35 2-1.81l6.21-15.22c0.2-0.52 0.29-0.94 0.29-1.32 0-1.27-0.99-2.14-2.29-2.14-1.12 0-1.79 0.6-2.27 2.11l-3.72 10.45-6.21-10.3c-0.62-1.04-1.02-1.19-1.92-1.19-0.99 0-1.56 0.42-2.06 1.79l-5.09 9.8-4.45-10.8c-0.55-1.36-1.22-1.86-2.27-1.86-0.82 0-1.22 0.4-1.5 1.02v1.04z" fill="#FEFEFE"/>
  <path d="m59.38 11.52c-1.57 0-2.16 0.85-2.16 2.09v15.95c0 1.32 0.82 2.08 2.19 2.08 1.42 0 2.17-0.82 2.17-2.08v-15.95c0-1.32-0.8-2.09-2.2-2.09z" fill="#FEFEFE"/>
  <path d="m67.27 6.33c-1.2 0-2.02 0.79-2.02 2.14v3.15h-1.82c-1.32 0-2.14 0.7-2.14 1.94 0 1.2 0.8 1.92 2.14 1.92h1.8v9.59c0 4.56 1.49 6.77 6.25 6.77 2.42 0 4.26-0.79 4.26-2.43 0-1.1-0.72-1.85-1.82-1.85-0.73 0-1.07 0.35-1.84 0.35-1.84 0-2.59-0.9-2.59-3.4v-9.03h3.23c1.32 0 2.14-0.7 2.14-1.94 0-1.2-0.79-1.92-2.14-1.92h-3.23v-3.15c0-1.35-0.84-2.14-2.22-2.14z" fill="#FEFEFE"/>
  <path d="m87.75 10.8c-7.01 0-10.34 5.08-10.34 10.27 0 5.42 3.41 10.84 9.92 10.84 3.99 0 6.17-1.46 7.98-3.18 0.6-0.57 0.82-1.12 0.82-1.72 0-1.09-0.84-1.84-1.94-1.84-0.84 0-1.46 0.6-2.18 1.24-1.25 1.1-2.4 1.65-4.36 1.65-3.75 0-5.93-3.35-5.93-6.84 0-3.68 2.25-6.56 5.71-6.56 2.23 0 3.48 0.87 4.38 2.06 0.77 1 1.14 1.2 1.91 1.2 1.12 0 1.92-0.85 1.92-2 0-0.64-0.25-1.31-0.95-2.16-1.42-1.84-3.87-2.96-6.94-2.96z" fill="#FEFEFE"/>
  <path d="m100.6 5.63c-1.47 0-2.11 0.85-2.11 2.09v21.84c0 1.32 0.82 2.08 2.19 2.08 1.42 0 2.17-0.82 2.17-2.08v-8.86c0-3.58 2.77-6.29 5.95-6.29 3.3 0 5.01 2.41 5.01 6v9.15c0 1.32 0.82 2.08 2.19 2.08 1.42 0 2.17-0.82 2.17-2.08v-9.55c0-5.62-2.85-9.21-8.32-9.21-2.95 0-5.32 1.15-7 2.91v-5.99c0-1.32-0.82-2.09-2.25-2.09z" fill="#FEFEFE"/>
  <path d="m58.68 0.92c-3.51 0-4.71 3.24-4.71 5.18 0 2.79 1.89 5.17 4.84 5.17 3.12 0 4.8-2.45 4.8-5.04 0-2.42-1.6-5.31-4.93-5.31z" fill="#CC8C7A"/>
  <path d="m57.07 7.07 1.71-1.99 1.93 1.84c0.27 0.25 0.7 0.23 0.95-0.05 0.25-0.27 0.22-0.72-0.05-0.97l-2.38-2.23c-0.27-0.26-0.75-0.24-1 0.04l-2.11 2.49c-0.25 0.29-0.22 0.72 0.07 0.97 0.28 0.24 0.65 0.17 0.88-0.1z" fill="#FEFEFE"/>
</svg>